<svg xmlns="http://www.w3.org/2000/svg" width="18" height="24" fill="none"><g filter="url(#a)"><path fill="#757575" d="M12.5 0h-7C4.673 0 4 .673 4 1.5v13c0 .827.673 1.5 1.5 1.5h7c.827 0 1.5-.673 1.5-1.5v-13c0-.827-.673-1.5-1.5-1.5Zm-7 1h7a.5.5 0 0 1 .5.5V12H5V1.5a.5.5 0 0 1 .5-.5Zm7 14h-7a.5.5 0 0 1-.5-.5V13h8v1.5a.5.5 0 0 1-.5.5Z"/></g><defs><filter id="a" width="18" height="24" x="0" y="0" color-interpolation-filters="sRGB" filterUnits="userSpaceOnUse"><feFlood flood-opacity="0" result="BackgroundImageFix"/><feColorMatrix in="SourceAlpha" result="hardAlpha" values="0 0 0 0 0 0 0 0 0 0 0 0 0 0 0 0 0 0 127 0"/><feOffset dy="4"/><feGaussianBlur stdDeviation="2"/><feComposite in2="hardAlpha" operator="out"/><feColorMatrix values="0 0 0 0 0 0 0 0 0 0 0 0 0 0 0 0 0 0 0.25 0"/><feBlend in2="BackgroundImageFix" result="effect1_dropShadow_2287_4"/><feBlend in="SourceGraphic" in2="effect1_dropShadow_2287_4" result="shape"/></filter></defs></svg>